<mxfile host="Electron" modified="2023-08-09T13:40:16.026Z" agent="Mozilla/5.0 (Macintosh; Intel Mac OS X 10_15_7) AppleWebKit/537.36 (KHTML, like Gecko) draw.io/21.6.1 Chrome/112.0.5615.204 Electron/24.6.1 Safari/537.36" etag="zBOpKDICGkSJhSxhbpqi" version="21.6.1" type="device">
  <diagram name="Page-1" id="ho_T4Muhjb3QsKiGWCYV">
    <mxGraphModel dx="2307" dy="1888" grid="0" gridSize="10" guides="1" tooltips="1" connect="1" arrows="1" fold="1" page="1" pageScale="1" pageWidth="827" pageHeight="1169" math="0" shadow="0">
      <root>
        <mxCell id="0" />
        <mxCell id="1" parent="0" />
        <mxCell id="CvqShgcFxuzdHxXJS8Va-2" value="lib" style="rounded=1;whiteSpace=wrap;html=1;fillColor=#f8cecc;strokeColor=#b85450;" vertex="1" parent="1">
          <mxGeometry x="361" y="304" width="96" height="32" as="geometry" />
        </mxCell>
        <mxCell id="CvqShgcFxuzdHxXJS8Va-8" style="edgeStyle=orthogonalEdgeStyle;orthogonalLoop=1;jettySize=auto;html=1;exitX=1;exitY=0.5;exitDx=0;exitDy=0;entryX=0;entryY=0.25;entryDx=0;entryDy=0;rounded=1;" edge="1" parent="1" source="CvqShgcFxuzdHxXJS8Va-3" target="CvqShgcFxuzdHxXJS8Va-2">
          <mxGeometry relative="1" as="geometry" />
        </mxCell>
        <mxCell id="CvqShgcFxuzdHxXJS8Va-3" value="index" style="rounded=1;whiteSpace=wrap;html=1;fillColor=#f8cecc;strokeColor=#b85450;" vertex="1" parent="1">
          <mxGeometry x="146" y="234" width="96" height="32" as="geometry" />
        </mxCell>
        <mxCell id="CvqShgcFxuzdHxXJS8Va-9" style="edgeStyle=orthogonalEdgeStyle;shape=connector;rounded=1;orthogonalLoop=1;jettySize=auto;html=1;exitX=0.5;exitY=1;exitDx=0;exitDy=0;entryX=0.75;entryY=0;entryDx=0;entryDy=0;labelBackgroundColor=default;strokeColor=default;fontFamily=Helvetica;fontSize=11;fontColor=default;endArrow=classic;" edge="1" parent="1" source="CvqShgcFxuzdHxXJS8Va-4" target="CvqShgcFxuzdHxXJS8Va-2">
          <mxGeometry relative="1" as="geometry" />
        </mxCell>
        <mxCell id="CvqShgcFxuzdHxXJS8Va-4" value="merge" style="rounded=1;whiteSpace=wrap;html=1;fillColor=#f8cecc;strokeColor=#b85450;" vertex="1" parent="1">
          <mxGeometry x="358" y="178" width="96" height="32" as="geometry" />
        </mxCell>
        <mxCell id="CvqShgcFxuzdHxXJS8Va-11" style="edgeStyle=orthogonalEdgeStyle;shape=connector;rounded=1;orthogonalLoop=1;jettySize=auto;html=1;exitX=0;exitY=0.25;exitDx=0;exitDy=0;entryX=0.75;entryY=1;entryDx=0;entryDy=0;labelBackgroundColor=default;strokeColor=default;fontFamily=Helvetica;fontSize=11;fontColor=default;endArrow=classic;" edge="1" parent="1" source="CvqShgcFxuzdHxXJS8Va-5" target="CvqShgcFxuzdHxXJS8Va-2">
          <mxGeometry relative="1" as="geometry" />
        </mxCell>
        <mxCell id="CvqShgcFxuzdHxXJS8Va-5" value="read" style="rounded=1;whiteSpace=wrap;html=1;fillColor=#f8cecc;strokeColor=#b85450;" vertex="1" parent="1">
          <mxGeometry x="490" y="391" width="96" height="32" as="geometry" />
        </mxCell>
        <mxCell id="CvqShgcFxuzdHxXJS8Va-12" style="edgeStyle=orthogonalEdgeStyle;shape=connector;rounded=1;orthogonalLoop=1;jettySize=auto;html=1;exitX=1;exitY=0.25;exitDx=0;exitDy=0;entryX=0.25;entryY=1;entryDx=0;entryDy=0;labelBackgroundColor=default;strokeColor=default;fontFamily=Helvetica;fontSize=11;fontColor=default;endArrow=classic;" edge="1" parent="1" source="CvqShgcFxuzdHxXJS8Va-6" target="CvqShgcFxuzdHxXJS8Va-2">
          <mxGeometry relative="1" as="geometry" />
        </mxCell>
        <mxCell id="CvqShgcFxuzdHxXJS8Va-6" value="write" style="rounded=1;whiteSpace=wrap;html=1;fillColor=#f8cecc;strokeColor=#b85450;" vertex="1" parent="1">
          <mxGeometry x="246" y="391" width="96" height="32" as="geometry" />
        </mxCell>
        <mxCell id="CvqShgcFxuzdHxXJS8Va-10" style="edgeStyle=orthogonalEdgeStyle;shape=connector;rounded=1;orthogonalLoop=1;jettySize=auto;html=1;exitX=0;exitY=0.5;exitDx=0;exitDy=0;entryX=1;entryY=0.25;entryDx=0;entryDy=0;labelBackgroundColor=default;strokeColor=default;fontFamily=Helvetica;fontSize=11;fontColor=default;endArrow=classic;" edge="1" parent="1" source="CvqShgcFxuzdHxXJS8Va-7" target="CvqShgcFxuzdHxXJS8Va-2">
          <mxGeometry relative="1" as="geometry" />
        </mxCell>
        <mxCell id="CvqShgcFxuzdHxXJS8Va-7" value="tmp" style="rounded=1;whiteSpace=wrap;html=1;fillColor=#f8cecc;strokeColor=#b85450;" vertex="1" parent="1">
          <mxGeometry x="586" y="234" width="96" height="32" as="geometry" />
        </mxCell>
        <mxCell id="CvqShgcFxuzdHxXJS8Va-18" style="edgeStyle=orthogonalEdgeStyle;shape=connector;rounded=1;orthogonalLoop=1;jettySize=auto;html=1;exitX=1;exitY=0.25;exitDx=0;exitDy=0;entryX=0;entryY=0.5;entryDx=0;entryDy=0;labelBackgroundColor=default;strokeColor=default;fontFamily=Helvetica;fontSize=11;fontColor=default;endArrow=classic;" edge="1" parent="1" source="CvqShgcFxuzdHxXJS8Va-13" target="CvqShgcFxuzdHxXJS8Va-3">
          <mxGeometry relative="1" as="geometry" />
        </mxCell>
        <mxCell id="CvqShgcFxuzdHxXJS8Va-13" value="InMemoryIndex" style="swimlane;fontStyle=0;childLayout=stackLayout;horizontal=1;startSize=30;horizontalStack=0;resizeParent=1;resizeParentMax=0;resizeLast=0;collapsible=0;marginBottom=0;whiteSpace=wrap;html=1;fontFamily=Helvetica;fontSize=11;fillColor=#dae8fc;strokeColor=#6c8ebf;" vertex="1" parent="1">
          <mxGeometry x="-75" y="210" width="184" height="90" as="geometry" />
        </mxCell>
        <mxCell id="CvqShgcFxuzdHxXJS8Va-14" value="word_count: usize" style="text;strokeColor=none;fillColor=none;align=left;verticalAlign=middle;spacingLeft=4;spacingRight=4;overflow=hidden;points=[[0,0.5],[1,0.5]];portConstraint=eastwest;rotatable=0;whiteSpace=wrap;html=1;fontSize=11;fontFamily=Helvetica;fontColor=default;" vertex="1" parent="CvqShgcFxuzdHxXJS8Va-13">
          <mxGeometry y="30" width="184" height="30" as="geometry" />
        </mxCell>
        <mxCell id="CvqShgcFxuzdHxXJS8Va-15" value="map: HashMap&amp;lt;String, Vec&amp;lt;Hit&amp;gt;&amp;gt;" style="text;strokeColor=none;fillColor=none;align=left;verticalAlign=middle;spacingLeft=4;spacingRight=4;overflow=hidden;points=[[0,0.5],[1,0.5]];portConstraint=eastwest;rotatable=0;whiteSpace=wrap;html=1;fontSize=11;fontFamily=Helvetica;fontColor=default;" vertex="1" parent="CvqShgcFxuzdHxXJS8Va-13">
          <mxGeometry y="60" width="184" height="30" as="geometry" />
        </mxCell>
        <mxCell id="CvqShgcFxuzdHxXJS8Va-19" style="edgeStyle=orthogonalEdgeStyle;shape=connector;rounded=1;orthogonalLoop=1;jettySize=auto;html=1;exitX=0.5;exitY=1;exitDx=0;exitDy=0;entryX=0.25;entryY=0;entryDx=0;entryDy=0;labelBackgroundColor=default;strokeColor=default;fontFamily=Helvetica;fontSize=11;fontColor=default;endArrow=classic;" edge="1" parent="1" source="CvqShgcFxuzdHxXJS8Va-17" target="CvqShgcFxuzdHxXJS8Va-3">
          <mxGeometry relative="1" as="geometry" />
        </mxCell>
        <mxCell id="CvqShgcFxuzdHxXJS8Va-17" value="pub type Hit = Vec&amp;lt;u8&amp;gt;" style="rounded=1;whiteSpace=wrap;html=1;fontFamily=Helvetica;fontSize=11;fillColor=#ffe6cc;strokeColor=#d79b00;" vertex="1" parent="1">
          <mxGeometry x="129" y="163" width="130" height="24" as="geometry" />
        </mxCell>
        <mxCell id="CvqShgcFxuzdHxXJS8Va-24" style="edgeStyle=orthogonalEdgeStyle;shape=connector;rounded=1;orthogonalLoop=1;jettySize=auto;html=1;exitX=0.25;exitY=0;exitDx=0;exitDy=0;entryX=0.25;entryY=1;entryDx=0;entryDy=0;labelBackgroundColor=default;strokeColor=default;fontFamily=Helvetica;fontSize=11;fontColor=default;endArrow=classic;" edge="1" parent="1" source="CvqShgcFxuzdHxXJS8Va-20" target="CvqShgcFxuzdHxXJS8Va-6">
          <mxGeometry relative="1" as="geometry" />
        </mxCell>
        <mxCell id="CvqShgcFxuzdHxXJS8Va-20" value="IndexFileWriter" style="swimlane;fontStyle=0;childLayout=stackLayout;horizontal=1;startSize=30;horizontalStack=0;resizeParent=1;resizeParentMax=0;resizeLast=0;collapsible=0;marginBottom=0;whiteSpace=wrap;html=1;fontFamily=Helvetica;fontSize=11;fillColor=#dae8fc;strokeColor=#6c8ebf;" vertex="1" parent="1">
          <mxGeometry x="146" y="489" width="184" height="120" as="geometry" />
        </mxCell>
        <mxCell id="CvqShgcFxuzdHxXJS8Va-21" value="offset: u64" style="text;strokeColor=none;fillColor=none;align=left;verticalAlign=middle;spacingLeft=4;spacingRight=4;overflow=hidden;points=[[0,0.5],[1,0.5]];portConstraint=eastwest;rotatable=0;whiteSpace=wrap;html=1;fontSize=11;fontFamily=Helvetica;fontColor=default;" vertex="1" parent="CvqShgcFxuzdHxXJS8Va-20">
          <mxGeometry y="30" width="184" height="30" as="geometry" />
        </mxCell>
        <mxCell id="CvqShgcFxuzdHxXJS8Va-23" value="writer: BufWriter&amp;lt;File&amp;gt;" style="text;strokeColor=none;fillColor=none;align=left;verticalAlign=middle;spacingLeft=4;spacingRight=4;overflow=hidden;points=[[0,0.5],[1,0.5]];portConstraint=eastwest;rotatable=0;whiteSpace=wrap;html=1;fontSize=11;fontFamily=Helvetica;fontColor=default;" vertex="1" parent="CvqShgcFxuzdHxXJS8Va-20">
          <mxGeometry y="60" width="184" height="30" as="geometry" />
        </mxCell>
        <mxCell id="CvqShgcFxuzdHxXJS8Va-22" value="contents_buf: Vec&amp;lt;u8&amp;gt;" style="text;strokeColor=none;fillColor=none;align=left;verticalAlign=middle;spacingLeft=4;spacingRight=4;overflow=hidden;points=[[0,0.5],[1,0.5]];portConstraint=eastwest;rotatable=0;whiteSpace=wrap;html=1;fontSize=11;fontFamily=Helvetica;fontColor=default;" vertex="1" parent="CvqShgcFxuzdHxXJS8Va-20">
          <mxGeometry y="90" width="184" height="30" as="geometry" />
        </mxCell>
        <mxCell id="CvqShgcFxuzdHxXJS8Va-26" style="edgeStyle=orthogonalEdgeStyle;shape=connector;rounded=1;orthogonalLoop=1;jettySize=auto;html=1;exitX=0.75;exitY=0;exitDx=0;exitDy=0;entryX=0.75;entryY=1;entryDx=0;entryDy=0;labelBackgroundColor=default;strokeColor=default;fontFamily=Helvetica;fontSize=11;fontColor=default;endArrow=classic;" edge="1" parent="1" source="CvqShgcFxuzdHxXJS8Va-25" target="CvqShgcFxuzdHxXJS8Va-6">
          <mxGeometry relative="1" as="geometry">
            <Array as="points">
              <mxPoint x="361" y="468" />
              <mxPoint x="318" y="468" />
            </Array>
          </mxGeometry>
        </mxCell>
        <mxCell id="CvqShgcFxuzdHxXJS8Va-25" value="pub fn write_index_to_tmp_file" style="rounded=1;whiteSpace=wrap;html=1;fontFamily=Helvetica;fontSize=11;fillColor=#e1d5e7;strokeColor=#9673a6;" vertex="1" parent="1">
          <mxGeometry x="231" y="629" width="173" height="33" as="geometry" />
        </mxCell>
        <mxCell id="CvqShgcFxuzdHxXJS8Va-32" style="edgeStyle=orthogonalEdgeStyle;shape=connector;rounded=1;orthogonalLoop=1;jettySize=auto;html=1;exitX=0.25;exitY=0;exitDx=0;exitDy=0;entryX=0.25;entryY=1;entryDx=0;entryDy=0;labelBackgroundColor=default;strokeColor=default;fontFamily=Helvetica;fontSize=11;fontColor=default;endArrow=classic;" edge="1" parent="1" source="CvqShgcFxuzdHxXJS8Va-28" target="CvqShgcFxuzdHxXJS8Va-5">
          <mxGeometry relative="1" as="geometry" />
        </mxCell>
        <mxCell id="CvqShgcFxuzdHxXJS8Va-28" value="IndexFileReader" style="swimlane;fontStyle=0;childLayout=stackLayout;horizontal=1;startSize=30;horizontalStack=0;resizeParent=1;resizeParentMax=0;resizeLast=0;collapsible=0;marginBottom=0;whiteSpace=wrap;html=1;fontFamily=Helvetica;fontSize=11;fillColor=#dae8fc;strokeColor=#6c8ebf;" vertex="1" parent="1">
          <mxGeometry x="490" y="501" width="200" height="120" as="geometry" />
        </mxCell>
        <mxCell id="CvqShgcFxuzdHxXJS8Va-29" value="data: BufReader&amp;lt;File&amp;gt;" style="text;strokeColor=none;fillColor=none;align=left;verticalAlign=middle;spacingLeft=4;spacingRight=4;overflow=hidden;points=[[0,0.5],[1,0.5]];portConstraint=eastwest;rotatable=0;whiteSpace=wrap;html=1;fontSize=11;fontFamily=Helvetica;fontColor=default;" vertex="1" parent="CvqShgcFxuzdHxXJS8Va-28">
          <mxGeometry y="30" width="200" height="30" as="geometry" />
        </mxCell>
        <mxCell id="CvqShgcFxuzdHxXJS8Va-30" value="table_of_contents: BufReader&amp;lt;File&amp;gt;" style="text;strokeColor=none;fillColor=none;align=left;verticalAlign=middle;spacingLeft=4;spacingRight=4;overflow=hidden;points=[[0,0.5],[1,0.5]];portConstraint=eastwest;rotatable=0;whiteSpace=wrap;html=1;fontSize=11;fontFamily=Helvetica;fontColor=default;" vertex="1" parent="CvqShgcFxuzdHxXJS8Va-28">
          <mxGeometry y="60" width="200" height="30" as="geometry" />
        </mxCell>
        <mxCell id="CvqShgcFxuzdHxXJS8Va-31" value="next: Option&amp;lt;Entry&amp;gt;" style="text;strokeColor=none;fillColor=none;align=left;verticalAlign=middle;spacingLeft=4;spacingRight=4;overflow=hidden;points=[[0,0.5],[1,0.5]];portConstraint=eastwest;rotatable=0;whiteSpace=wrap;html=1;fontSize=11;fontFamily=Helvetica;fontColor=default;" vertex="1" parent="CvqShgcFxuzdHxXJS8Va-28">
          <mxGeometry y="90" width="200" height="30" as="geometry" />
        </mxCell>
        <mxCell id="CvqShgcFxuzdHxXJS8Va-38" style="edgeStyle=orthogonalEdgeStyle;shape=connector;rounded=1;orthogonalLoop=1;jettySize=auto;html=1;exitX=0.25;exitY=0;exitDx=0;exitDy=0;entryX=0.5;entryY=1;entryDx=0;entryDy=0;labelBackgroundColor=default;strokeColor=default;fontFamily=Helvetica;fontSize=11;fontColor=default;endArrow=classic;" edge="1" parent="1" source="CvqShgcFxuzdHxXJS8Va-33" target="CvqShgcFxuzdHxXJS8Va-5">
          <mxGeometry relative="1" as="geometry" />
        </mxCell>
        <mxCell id="CvqShgcFxuzdHxXJS8Va-33" value="Entry" style="swimlane;fontStyle=0;childLayout=stackLayout;horizontal=1;startSize=30;horizontalStack=0;resizeParent=1;resizeParentMax=0;resizeLast=0;collapsible=0;marginBottom=0;whiteSpace=wrap;html=1;fontFamily=Helvetica;fontSize=11;fillColor=#dae8fc;strokeColor=#6c8ebf;" vertex="1" parent="1">
          <mxGeometry x="708" y="482" width="110" height="150" as="geometry" />
        </mxCell>
        <mxCell id="CvqShgcFxuzdHxXJS8Va-34" value="term: String" style="text;strokeColor=none;fillColor=none;align=left;verticalAlign=middle;spacingLeft=4;spacingRight=4;overflow=hidden;points=[[0,0.5],[1,0.5]];portConstraint=eastwest;rotatable=0;whiteSpace=wrap;html=1;fontSize=11;fontFamily=Helvetica;fontColor=default;" vertex="1" parent="CvqShgcFxuzdHxXJS8Va-33">
          <mxGeometry y="30" width="110" height="30" as="geometry" />
        </mxCell>
        <mxCell id="CvqShgcFxuzdHxXJS8Va-35" value="ref_count: u32" style="text;strokeColor=none;fillColor=none;align=left;verticalAlign=middle;spacingLeft=4;spacingRight=4;overflow=hidden;points=[[0,0.5],[1,0.5]];portConstraint=eastwest;rotatable=0;whiteSpace=wrap;html=1;fontSize=11;fontFamily=Helvetica;fontColor=default;" vertex="1" parent="CvqShgcFxuzdHxXJS8Va-33">
          <mxGeometry y="60" width="110" height="30" as="geometry" />
        </mxCell>
        <mxCell id="CvqShgcFxuzdHxXJS8Va-36" value="offset: u64" style="text;strokeColor=none;fillColor=none;align=left;verticalAlign=middle;spacingLeft=4;spacingRight=4;overflow=hidden;points=[[0,0.5],[1,0.5]];portConstraint=eastwest;rotatable=0;whiteSpace=wrap;html=1;fontSize=11;fontFamily=Helvetica;fontColor=default;" vertex="1" parent="CvqShgcFxuzdHxXJS8Va-33">
          <mxGeometry y="90" width="110" height="30" as="geometry" />
        </mxCell>
        <mxCell id="CvqShgcFxuzdHxXJS8Va-37" value="nbytes: u64" style="text;strokeColor=none;fillColor=none;align=left;verticalAlign=middle;spacingLeft=4;spacingRight=4;overflow=hidden;points=[[0,0.5],[1,0.5]];portConstraint=eastwest;rotatable=0;whiteSpace=wrap;html=1;fontSize=11;fontFamily=Helvetica;fontColor=default;" vertex="1" parent="CvqShgcFxuzdHxXJS8Va-33">
          <mxGeometry y="120" width="110" height="30" as="geometry" />
        </mxCell>
        <mxCell id="CvqShgcFxuzdHxXJS8Va-44" style="edgeStyle=orthogonalEdgeStyle;shape=connector;rounded=1;orthogonalLoop=1;jettySize=auto;html=1;exitX=0;exitY=0.25;exitDx=0;exitDy=0;entryX=0.75;entryY=0;entryDx=0;entryDy=0;labelBackgroundColor=default;strokeColor=default;fontFamily=Helvetica;fontSize=11;fontColor=default;endArrow=classic;" edge="1" parent="1" source="CvqShgcFxuzdHxXJS8Va-39" target="CvqShgcFxuzdHxXJS8Va-7">
          <mxGeometry relative="1" as="geometry" />
        </mxCell>
        <mxCell id="CvqShgcFxuzdHxXJS8Va-39" value="TmpDir" style="swimlane;fontStyle=0;childLayout=stackLayout;horizontal=1;startSize=30;horizontalStack=0;resizeParent=1;resizeParentMax=0;resizeLast=0;collapsible=0;marginBottom=0;whiteSpace=wrap;html=1;fontFamily=Helvetica;fontSize=11;fillColor=#dae8fc;strokeColor=#6c8ebf;" vertex="1" parent="1">
          <mxGeometry x="734" y="251" width="110" height="90" as="geometry" />
        </mxCell>
        <mxCell id="CvqShgcFxuzdHxXJS8Va-40" value="dir: PathBuf" style="text;strokeColor=none;fillColor=none;align=left;verticalAlign=middle;spacingLeft=4;spacingRight=4;overflow=hidden;points=[[0,0.5],[1,0.5]];portConstraint=eastwest;rotatable=0;whiteSpace=wrap;html=1;fontSize=11;fontFamily=Helvetica;fontColor=default;" vertex="1" parent="CvqShgcFxuzdHxXJS8Va-39">
          <mxGeometry y="30" width="110" height="30" as="geometry" />
        </mxCell>
        <mxCell id="CvqShgcFxuzdHxXJS8Va-41" value="n: usize" style="text;strokeColor=none;fillColor=none;align=left;verticalAlign=middle;spacingLeft=4;spacingRight=4;overflow=hidden;points=[[0,0.5],[1,0.5]];portConstraint=eastwest;rotatable=0;whiteSpace=wrap;html=1;fontSize=11;fontFamily=Helvetica;fontColor=default;" vertex="1" parent="CvqShgcFxuzdHxXJS8Va-39">
          <mxGeometry y="60" width="110" height="30" as="geometry" />
        </mxCell>
        <mxCell id="CvqShgcFxuzdHxXJS8Va-49" style="edgeStyle=orthogonalEdgeStyle;shape=connector;rounded=1;orthogonalLoop=1;jettySize=auto;html=1;exitX=0;exitY=0.25;exitDx=0;exitDy=0;entryX=0.75;entryY=0;entryDx=0;entryDy=0;labelBackgroundColor=default;strokeColor=default;fontFamily=Helvetica;fontSize=11;fontColor=default;endArrow=classic;" edge="1" parent="1" source="CvqShgcFxuzdHxXJS8Va-45" target="CvqShgcFxuzdHxXJS8Va-4">
          <mxGeometry relative="1" as="geometry" />
        </mxCell>
        <mxCell id="CvqShgcFxuzdHxXJS8Va-45" value="FileMerge" style="swimlane;fontStyle=0;childLayout=stackLayout;horizontal=1;startSize=30;horizontalStack=0;resizeParent=1;resizeParentMax=0;resizeLast=0;collapsible=0;marginBottom=0;whiteSpace=wrap;html=1;fontFamily=Helvetica;fontSize=11;fillColor=#dae8fc;strokeColor=#6c8ebf;" vertex="1" parent="1">
          <mxGeometry x="413" y="-6" width="151" height="120" as="geometry" />
        </mxCell>
        <mxCell id="CvqShgcFxuzdHxXJS8Va-46" value="output_dir: PathBuf" style="text;strokeColor=none;fillColor=none;align=left;verticalAlign=middle;spacingLeft=4;spacingRight=4;overflow=hidden;points=[[0,0.5],[1,0.5]];portConstraint=eastwest;rotatable=0;whiteSpace=wrap;html=1;fontSize=11;fontFamily=Helvetica;fontColor=default;" vertex="1" parent="CvqShgcFxuzdHxXJS8Va-45">
          <mxGeometry y="30" width="151" height="30" as="geometry" />
        </mxCell>
        <mxCell id="CvqShgcFxuzdHxXJS8Va-48" value="tmp_dir: TmpDir" style="text;strokeColor=none;fillColor=none;align=left;verticalAlign=middle;spacingLeft=4;spacingRight=4;overflow=hidden;points=[[0,0.5],[1,0.5]];portConstraint=eastwest;rotatable=0;whiteSpace=wrap;html=1;fontSize=11;fontFamily=Helvetica;fontColor=default;" vertex="1" parent="CvqShgcFxuzdHxXJS8Va-45">
          <mxGeometry y="60" width="151" height="30" as="geometry" />
        </mxCell>
        <mxCell id="CvqShgcFxuzdHxXJS8Va-47" value="stacks: Vec&amp;lt;Vec&amp;lt;PathBuf&amp;gt;&amp;gt;" style="text;strokeColor=none;fillColor=none;align=left;verticalAlign=middle;spacingLeft=4;spacingRight=4;overflow=hidden;points=[[0,0.5],[1,0.5]];portConstraint=eastwest;rotatable=0;whiteSpace=wrap;html=1;fontSize=11;fontFamily=Helvetica;fontColor=default;" vertex="1" parent="CvqShgcFxuzdHxXJS8Va-45">
          <mxGeometry y="90" width="151" height="30" as="geometry" />
        </mxCell>
        <mxCell id="CvqShgcFxuzdHxXJS8Va-53" style="edgeStyle=orthogonalEdgeStyle;shape=connector;rounded=1;orthogonalLoop=1;jettySize=auto;html=1;exitX=0.25;exitY=1;exitDx=0;exitDy=0;entryX=0.5;entryY=0;entryDx=0;entryDy=0;labelBackgroundColor=default;strokeColor=default;fontFamily=Helvetica;fontSize=11;fontColor=default;endArrow=classic;" edge="1" parent="1" source="CvqShgcFxuzdHxXJS8Va-51" target="CvqShgcFxuzdHxXJS8Va-4">
          <mxGeometry relative="1" as="geometry">
            <Array as="points">
              <mxPoint x="363" y="156" />
              <mxPoint x="406" y="156" />
            </Array>
          </mxGeometry>
        </mxCell>
        <mxCell id="CvqShgcFxuzdHxXJS8Va-51" value="fn merge_streams" style="rounded=1;whiteSpace=wrap;html=1;fontFamily=Helvetica;fontSize=11;fillColor=#e1d5e7;strokeColor=#9673a6;" vertex="1" parent="1">
          <mxGeometry x="319.5" y="-68" width="173" height="33" as="geometry" />
        </mxCell>
        <mxCell id="CvqShgcFxuzdHxXJS8Va-54" style="edgeStyle=orthogonalEdgeStyle;shape=connector;rounded=1;orthogonalLoop=1;jettySize=auto;html=1;exitX=0;exitY=0.5;exitDx=0;exitDy=0;entryX=0.25;entryY=0;entryDx=0;entryDy=0;labelBackgroundColor=default;strokeColor=default;fontFamily=Helvetica;fontSize=11;fontColor=default;endArrow=classic;" edge="1" parent="1" source="CvqShgcFxuzdHxXJS8Va-52" target="CvqShgcFxuzdHxXJS8Va-4">
          <mxGeometry relative="1" as="geometry">
            <Array as="points">
              <mxPoint x="299" y="-106" />
              <mxPoint x="299" y="165" />
              <mxPoint x="382" y="165" />
            </Array>
          </mxGeometry>
        </mxCell>
        <mxCell id="CvqShgcFxuzdHxXJS8Va-52" value="fn merge_reversed" style="rounded=1;whiteSpace=wrap;html=1;fontFamily=Helvetica;fontSize=11;fillColor=#e1d5e7;strokeColor=#9673a6;" vertex="1" parent="1">
          <mxGeometry x="319.5" y="-122" width="173" height="33" as="geometry" />
        </mxCell>
      </root>
    </mxGraphModel>
  </diagram>
</mxfile>
